<svg xmlns="http://www.w3.org/2000/svg" width="32" height="32" viewBox="0 0 810 810" preserveAspectRatio="xMidYMid meet">
  <defs>
    <mask id="roundedMask">
      <rect width="810" height="810" rx="80" ry="80" fill="white"/>
    </mask>
  </defs>
  <g mask="url(#roundedMask)">
    <path fill="#009efd" d="M 405.660156 30.378906 C 433.261719 29.660156 460.570312 36.875 484.839844 49.835938 C 509.773438 63.691406 527.773438 83.359375 542.386719 107.550781 C 546.726562 114.871094 550.894531 122.289062 555.050781 129.714844 L 556.84375 132.917969 C 559.34375 137.375 561.835938 141.835938 564.332031 146.292969 C 569.742188 155.972656 575.234375 165.605469 580.75 175.226562 C 582.675781 178.589844 584.597656 181.957031 586.515625 185.324219 C 593.253906 197.140625 600.015625 208.945312 606.898438 220.679688 C 612.519531 230.273438 617.984375 239.945312 623.386719 249.660156 C 627.609375 257.226562 631.929688 264.726562 636.316406 272.199219 C 641.320312 280.71875 646.21875 289.289062 651.027344 297.921875 C 657.988281 310.417969 665.117188 322.8125 672.289062 335.191406 C 674.363281 338.777344 676.433594 342.371094 678.496094 345.960938 C 687.050781 360.851562 687.050781 360.851562 695.828125 375.609375 C 699.980469 382.480469 704.027344 389.414062 708.085938 396.339844 L 709.253906 398.332031 C 713.171875 405.015625 717.082031 411.707031 720.988281 418.402344 C 722.84375 421.582031 724.699219 424.761719 726.554688 427.9375 L 727.667969 429.839844 C 733.726562 440.199219 739.929688 450.464844 746.1875 460.707031 C 750.746094 468.179688 755.234375 475.675781 759.46875 483.339844 C 762.96875 489.671875 766.632812 495.90625 770.289062 502.148438 C 772.1875 505.402344 774.085938 508.660156 775.980469 511.917969 C 777.085938 513.820312 778.199219 515.71875 779.320312 517.609375 C 793.484375 541.625 800.910156 567.027344 801.21875 594.980469 C 801.25 608.046875 800.832031 620.425781 797.796875 633.152344 L 797.25 635.511719 C 790.902344 662.152344 777.734375 685.371094 759.125 705.457031 C 758.304688 706.324219 757.480469 707.191406 756.636719 708.085938 L 754.015625 710.914062 C 735.414062 730.339844 710.601562 743.851562 684.867188 751.359375 C 677.199219 753.433594 669.460938 755.195312 661.648438 756.636719 L 658.398438 757.234375 C 647.5 759.027344 636.71875 759.121094 625.699219 759.078125 L 622.789062 759.070312 C 608.804688 759.015625 595.121094 758.734375 581.4375 755.578125 L 578.621094 754.945312 C 552.421875 748.839844 527.410156 737.855469 506.5 720.75 L 504.839844 719.410156 C 476.160156 696.195312 459.714844 667.21875 442.160156 635.1875 C 436.835938 625.488281 431.355469 615.882812 425.789062 606.316406 C 422.40625 600.507812 419.085938 594.664062 415.828125 588.78125 L 413.800781 585.117188 C 412.527344 582.808594 411.261719 580.496094 410 578.183594 L 408.269531 575.046875 L 406.765625 572.292969 C 405.089844 569.6875 403.21875 567.707031 400.957031 565.605469 L 400.105469 567.871094 C 398.796875 571.003906 397.277344 573.886719 395.625 576.851562 L 393.675781 580.351562 L 391.59375 584.074219 L 389.433594 587.945312 C 384.703125 596.410156 379.921875 604.847656 375.085938 613.253906 C 371.667969 619.226562 368.289062 625.222656 364.960938 631.246094 C 338.171875 679.480469 338.171875 679.480469 320.234375 697.988281 C 319.128906 699.132812 318.03125 700.285156 316.9375 701.441406 C 308.0625 710.832031 298.796875 718.871094 288.027344 726.027344 L 286.113281 727.308594 C 272.160156 736.5 256.996094 742.777344 240.996094 747.464844 L 238.511719 748.203125 C 222.8125 752.554688 207.230469 754.03125 190.996094 753.863281 L 188.335938 753.847656 C 175.609375 753.757812 163.214844 753.472656 150.824219 750.304688 L 147.871094 749.5625 C 116.847656 741.605469 89.421875 727.863281 66.152344 705.734375 C 61.597656 701.179688 57.609375 696.332031 53.726562 691.199219 L 51.164062 687.886719 C 34.429688 665.765625 24.433594 639.671875 20.59375 612.265625 C 17.585938 585.429688 21.917969 556.738281 32.652344 531.957031 C 39.488281 516.96875 47.957031 502.789062 56.316406 488.613281 C 59.964844 482.410156 63.519531 476.160156 67.050781 469.890625 L 70.46875 463.820312 L 72.144531 460.84375 C 74.71875 456.289062 77.3125 451.742188 79.914062 447.199219 L 81.460938 444.496094 L 84.695312 438.84375 C 87.648438 433.679688 90.601562 428.511719 93.550781 423.347656 L 98.945312 413.914062 L 101.132812 410.082031 L 105.527344 402.390625 L 106.625 400.472656 L 114.175781 387.253906 C 117.304688 381.777344 120.433594 376.300781 123.574219 370.828125 C 129.152344 361.09375 134.675781 351.328125 140.136719 341.527344 C 144.964844 332.871094 149.890625 324.273438 154.914062 315.734375 C 160.371094 306.449219 165.636719 297.074219 170.8125 287.632812 C 178.070312 274.386719 185.5625 261.289062 193.144531 248.226562 C 196.628906 242.203125 200.078125 236.15625 203.53125 230.113281 L 205.648438 226.402344 C 208.855469 220.785156 212.0625 215.167969 215.261719 209.546875 C 222.84375 196.246094 230.464844 182.96875 238.195312 169.753906 C 242.699219 162.054688 247.164062 154.332031 251.617188 146.601562 L 257.554688 136.3125 C 258.878906 134.011719 260.207031 131.710938 261.53125 129.410156 C 279.988281 97.398438 299.867188 68.574219 332.355469 49.503906 C 355.125 36.980469 379.847656 31.652344 405.660156 30.378906"/>
    <path fill="#5004fb" d="M 662.277344 350.511719 C 664.042969 351.097656 665.816406 351.652344 667.597656 352.1875 C 675.203125 354.507812 683.265625 356.976562 688.898438 362.855469 C 692.582031 367.785156 695.265625 373.226562 697.984375 378.726562 C 700.792969 384.203125 703.984375 389.453125 707.132812 394.734375 C 709.078125 398.003906 710.996094 401.292969 712.914062 404.578125 L 715.257812 408.585938 C 717.164062 411.847656 719.070312 415.113281 720.972656 418.378906 C 722.832031 421.566406 724.695312 424.75 726.554688 427.9375 L 727.667969 429.839844 C 733.726562 440.199219 739.929688 450.464844 746.1875 460.707031 C 750.746094 468.179688 755.234375 475.675781 759.46875 483.339844 C 762.96875 489.671875 766.632812 495.90625 770.289062 502.148438 C 772.1875 505.402344 774.085938 508.660156 775.980469 511.917969 C 777.085938 513.820312 778.199219 515.71875 779.320312 517.609375 C 793.484375 541.625 800.90625 567.027344 801.21875 594.980469 C 801.25 608.046875 800.832031 620.425781 797.796875 633.152344 L 797.246094 635.511719 C 790.902344 662.152344 777.734375 685.371094 759.125 705.457031 C 758.304688 706.324219 757.480469 707.191406 756.636719 708.085938 L 754.015625 710.914062 C 735.414062 730.339844 710.601562 743.851562 684.867188 751.359375 C 677.199219 753.433594 669.460938 755.195312 661.648438 756.636719 L 658.398438 757.234375 C 647.5 759.027344 636.71875 759.121094 625.699219 759.078125 L 622.789062 759.070312 C 608.804688 759.015625 595.121094 758.734375 581.4375 755.578125 L 578.621094 754.945312 C 552.421875 748.839844 527.410156 737.855469 506.5 720.75 L 504.839844 719.410156 C 476.160156 696.195312 459.714844 667.21875 442.160156 635.1875 C 436.835938 625.488281 431.355469 615.890625 425.796875 606.320312 C 420.367188 596.964844 415.070312 587.542969 409.8125 578.089844 L 408.0625 574.941406 C 407.554688 574.027344 407.046875 573.113281 406.523438 572.171875 C 405.445312 570.289062 404.273438 568.464844 403.070312 566.660156 C 403.472656 563.476562 404.777344 560.972656 406.324219 558.1875 L 407.699219 555.691406 L 409.203125 553.003906 L 410.777344 550.171875 C 416 540.796875 421.316406 531.476562 426.667969 522.175781 C 428.488281 519.007812 430.308594 515.839844 432.125 512.667969 C 439.582031 499.691406 447.140625 486.773438 454.796875 473.910156 C 459.695312 465.660156 464.515625 457.367188 469.296875 449.046875 C 471.84375 444.625 474.394531 440.207031 476.949219 435.789062 L 478.664062 432.8125 C 488.191406 416.347656 498.597656 401.03125 511.777344 387.238281 L 514.117188 384.660156 C 529.234375 368.585938 550.183594 356.972656 571.195312 350.59375 C 600.785156 342.210938 632.839844 340.648438 662.277344 350.511719"/>
    <path fill="#5004fb" d="M 662.277344 350.511719 C 664.042969 351.097656 665.816406 351.652344 667.597656 352.1875 C 675.203125 354.507812 683.265625 356.976562 688.898438 362.855469 C 692.582031 367.785156 695.265625 373.226562 697.984375 378.726562 C 700.792969 384.203125 703.984375 389.453125 707.132812 394.734375 C 709.078125 398.003906 710.996094 401.292969 712.914062 404.578125 L 715.257812 408.585938 C 717.164062 411.847656 719.070312 415.113281 720.972656 418.378906 C 722.832031 421.566406 724.695312 424.75 726.554688 427.9375 L 727.667969 429.839844 C 733.726562 440.199219 739.929688 450.464844 746.1875 460.707031 C 750.746094 468.179688 755.234375 475.675781 759.46875 483.339844 C 762.96875 489.671875 766.632812 495.90625 770.289062 502.148438 C 772.1875 505.402344 774.085938 508.660156 775.980469 511.917969 C 777.085938 513.820312 778.199219 515.71875 779.320312 517.609375 C 793.484375 541.625 800.90625 567.027344 801.21875 594.980469 C 801.25 608.046875 800.832031 620.425781 797.796875 633.152344 L 797.246094 635.511719 C 790.902344 662.152344 777.734375 685.371094 759.125 705.457031 C 758.304688 706.324219 757.480469 707.191406 756.636719 708.085938 L 754.015625 710.914062 C 735.414062 730.339844 710.601562 743.851562 684.867188 751.359375 C 677.199219 753.433594 669.460938 755.195312 661.648438 756.636719 L 658.398438 757.234375 C 647.5 759.027344 636.71875 759.121094 625.699219 759.078125 L 622.789062 759.070312 C 608.804688 759.015625 595.121094 758.734375 581.4375 755.578125 L 578.621094 754.945312 C 552.421875 748.839844 527.410156 737.855469 506.5 720.75 L 504.839844 719.410156 C 476.160156 696.195312 459.714844 667.21875 442.160156 635.1875 C 436.835938 625.488281 431.355469 615.890625 425.796875 606.320312 C 420.367188 596.964844 415.070312 587.542969 409.8125 578.089844 L 408.0625 574.941406 C 407.554688 574.027344 407.046875 573.113281 406.523438 572.171875 C 405.445312 570.289062 404.273438 568.464844 403.070312 566.660156 C 403.472656 563.476562 404.777344 560.972656 406.324219 558.1875 L 407.699219 555.691406 L 409.203125 553.003906 L 410.777344 550.171875 C 416 540.796875 421.316406 531.476562 426.667969 522.175781 C 428.488281 519.007812 430.308594 515.839844 432.125 512.667969 C 439.582031 499.691406 447.140625 486.773438 454.796875 473.910156 C 459.695312 465.660156 464.515625 457.367188 469.296875 449.046875 C 471.84375 444.625 474.394531 440.207031 476.949219 435.789062 L 478.664062 432.8125 C 488.191406 416.347656 498.597656 401.03125 511.777344 387.238281 L 514.117188 384.660156 C 529.234375 368.585938 550.183594 356.972656 571.195312 350.59375 C 600.785156 342.210938 632.839844 340.648438 662.277344 350.511719"/>
  </g>
</svg>
